<svg xmlns="http://www.w3.org/2000/svg" viewBox="0 0 23.21 24.64"><defs><style>.cls-1{fill:#0084b4;}</style></defs><title>FAVICON</title><g id="Mesa_3" data-name="Mesa 3"><path class="cls-1" d="M10.36,4.5A3.59,3.59,0,0,0,8.32,6a3,3,0,0,0-.69,2.21.28.28,0,0,0,.27.22H8a.28.28,0,0,0,.21-.33,2.61,2.61,0,0,1,.6-1.77A3.09,3.09,0,0,1,10.47,5a.29.29,0,0,0,.22-.33A.28.28,0,0,0,10.36,4.5Z"/><path class="cls-1" d="M17.79,9.45a.28.28,0,0,0-.54.12,2.55,2.55,0,0,1-.56,1.79A3.13,3.13,0,0,1,15,12.72a.26.26,0,0,0-.2.33.28.28,0,0,0,.26.21h.07a3.63,3.63,0,0,0,2-1.58A3.07,3.07,0,0,0,17.79,9.45Z"/><path class="cls-1" d="M12.56,2.78A6.27,6.27,0,0,0,6.3,9c0,3.86,2.13,4.81,3.16,5.26a2.39,2.39,0,0,1,.43.22v2.17H9.45a.28.28,0,0,0-.28.28.27.27,0,0,0,.28.27h.44a2.55,2.55,0,0,0,.12.68h0a.28.28,0,0,0-.28.27.29.29,0,0,0,.28.28h.25a2.73,2.73,0,0,0,1,1v.08a1.32,1.32,0,0,0,2.64,0v-.08a2.73,2.73,0,0,0,1-1h.25a.29.29,0,0,0,.28-.28.28.28,0,0,0-.28-.27h0a2.55,2.55,0,0,0,.12-.68h.44A.27.27,0,0,0,16,17a.28.28,0,0,0-.28-.28h-.44V14.47c0-.1.32-.24.61-.36a4.63,4.63,0,0,0,1.91-1.29A5.79,5.79,0,0,0,18.82,9,6.27,6.27,0,0,0,12.56,2.78Zm.75,16.89a.77.77,0,0,1-1.5,0h0l.11,0h.12l.08,0h0l.12,0h.56l.12,0h0l.08,0h.12l.11,0Zm.17-.65h0a1.75,1.75,0,0,1-.32.12h0l-.09,0h0l-.08,0h-.74l-.08,0h0l-.09,0h0a1.75,1.75,0,0,1-.32-.12h0a2,2,0,0,1-.71-.55h3.26A2,2,0,0,1,13.48,19Zm1-1.1H10.6a2.18,2.18,0,0,1-.16-.68h4.24A2.18,2.18,0,0,1,14.52,17.92Zm-4.08-1.23v-.64h4.24v.64Zm1.34-5.11a6.06,6.06,0,0,0,.75,0,6.8,6.8,0,0,0,.8,0,15.2,15.2,0,0,0-.07,1.6c0,1.05.1,2,.14,2.32H11.73a21.73,21.73,0,0,0,.13-2.34A14.72,14.72,0,0,0,11.78,11.58Zm3.84,2c-.5.21-.94.4-.94.87v1H14a18,18,0,0,1-.06-4,3.37,3.37,0,0,0,1-.36,1.39,1.39,0,0,0,.82-1.1c0-.37-.28-.74-.9-.74a1,1,0,0,0-.81.38A2.83,2.83,0,0,0,13.42,11a5.84,5.84,0,0,1-.89.06,6.9,6.9,0,0,1-.84-.05,2.79,2.79,0,0,0-.56-1.37,1,1,0,0,0-.78-.37c-.64,0-.93.4-.93.76a1.38,1.38,0,0,0,.81,1.1,3.76,3.76,0,0,0,1,.35,18.81,18.81,0,0,1,0,4h-.74v-1c0-.34-.33-.49-.76-.68-1-.44-2.83-1.26-2.83-4.76A5.71,5.71,0,1,1,18.27,9C18.27,12.48,16.68,13.16,15.62,13.61ZM14,10.89a2.13,2.13,0,0,1,.38-.87.51.51,0,0,1,.4-.19c.08,0,.35,0,.35.19s-.17.41-.54.63A3.55,3.55,0,0,1,14,10.89Zm-2.9,0a2.86,2.86,0,0,1-.61-.24c-.39-.23-.53-.47-.53-.62s.29-.21.38-.21a.49.49,0,0,1,.37.18A2.17,2.17,0,0,1,11.11,10.9Z"/></g></svg>