<svg xmlns="http://www.w3.org/2000/svg" viewBox="0 0 260.21 255.78"><defs><style>.cls-1,.cls-4{font-size:38.18px;}.cls-1,.cls-2,.cls-5{fill:#fff;}.cls-1,.cls-2{font-family:Poppins-SemiBold, Poppins;font-weight:700;}.cls-2{font-size:27.27px;}.cls-3{font-size:41.45px;}</style></defs><title>Blanco</title><g id="Mesa_3" data-name="Mesa 3"><text class="cls-1" transform="matrix(-1.04, 0, 0, 1, 239.53, 141.03)">N</text><text class="cls-2" transform="translate(96.83 102.87) scale(1.04 1)">GAF<tspan class="cls-3" x="54.92" y="0"> </tspan><tspan class="cls-4"><tspan x="0" y="38.18">DESIG</tspan></tspan></text><path class="cls-5" d="M94.93,170.76l3.5-.74-1.37-6-3.5.74a.66.66,0,0,0-.51.8l1.06,4.67A.69.69,0,0,0,94.93,170.76Z"/><path class="cls-5" d="M94.8,169.93l3.44-.73-.58-2.54-3.44.73a.34.34,0,0,0-.25.39l.44,1.9A.33.33,0,0,0,94.8,169.93Z"/><path class="cls-5" d="M97.38,165.44l-.32-1.4-3.5.74a.66.66,0,0,0-.51.8l.17.74Z"/><path class="cls-5" d="M99.38,169.8l98.37-20.91a1.72,1.72,0,0,0-1.72-1.1l-97,20.61Z"/><path class="cls-5" d="M98.3,165.07l.76,3.33,97-20.61h0a1.65,1.65,0,0,0,1-2,1.72,1.72,0,0,0-1.8-1.35h0Z"/><path class="cls-5" d="M195.27,144.46a1.65,1.65,0,0,0,1.08-1.7L98,163.67l.32,1.4Z"/><path class="cls-5" d="M196.35,142.76a1.66,1.66,0,0,1-1.08,1.7h0a1.72,1.72,0,0,1,1.8,1.35,1.65,1.65,0,0,1-1,2h0a1.72,1.72,0,0,1,1.72,1.1l12.33-5.84Z"/><path class="cls-5" d="M196.35,142.76a1.66,1.66,0,0,1-1.08,1.7h0l14.81-1.42Z"/><path class="cls-5" d="M205.94,143a6.93,6.93,0,0,0,.13.88,7.68,7.68,0,0,0,.31,1l3.7-1.76Z"/><path class="cls-5" d="M43.55,75.46c-4.34.91-8.83,4.17-12.33,9-3.38,4.62-4.93,9.44-4.15,12.89a1.63,1.63,0,0,0,1.62,1.27,1.34,1.34,0,0,0,.35,0,1.61,1.61,0,0,0,1.28-1.91c-.57-2.51.85-6.58,3.62-10.36,3-4.07,6.84-6.94,10.32-7.67a1.61,1.61,0,0,0,1.27-1.91A1.66,1.66,0,0,0,43.55,75.46Z"/><path class="cls-5" d="M88.48,104.35a1.68,1.68,0,0,0-2-1.19,1.62,1.62,0,0,0-1.23,1.94c.63,2.5-.7,6.6-3.37,10.44-2.88,4.14-6.67,7.09-10.13,7.9a1.6,1.6,0,0,0-1.23,1.94,1.65,1.65,0,0,0,1.62,1.23,1.74,1.74,0,0,0,.39,0c4.31-1,8.73-4.37,12.11-9.22S89.34,107.78,88.48,104.35Z"/><path class="cls-5" d="M56.87,65.42C36,65.42,19,81.82,19,102c0,22.55,12.9,28.07,19.09,30.73A16.93,16.93,0,0,1,40.7,134v12.7H38a1.61,1.61,0,1,0,0,3.21h2.69a15,15,0,0,0,.74,3.93h0a1.61,1.61,0,1,0,0,3.21H43a16,16,0,0,0,5.94,5.65c0,.14,0,.29,0,.43a8,8,0,0,0,16,0c0-.14,0-.29,0-.43A15.89,15.89,0,0,0,70.78,157h1.51a1.61,1.61,0,1,0,0-3.21h0a15,15,0,0,0,.73-3.93H75.7a1.61,1.61,0,1,0,0-3.21H73v-13c0-.6,2-1.4,3.67-2.11,3.3-1.35,7.82-3.21,11.54-7.57,4.37-5.14,6.49-12.35,6.49-22C94.73,81.82,77.74,65.42,56.87,65.42Zm4.55,98.65a4.7,4.7,0,0,1-9.11,0l.11,0,.66.17.42.1.27,0,.5.08.2,0,.71.08h.13l.62.05h.19l.75,0,.74,0h.19l.62-.05h.13l.71-.08.2,0,.5-.08.27,0,.42-.1.66-.17Zm1-3.81-.13.05a12.4,12.4,0,0,1-2,.71h0l-.57.15-.14,0-.49.09-.21,0-.44,0-.24,0-.45,0-.23,0H56.18l-.22,0-.46,0-.24,0-.44,0-.21,0-.49-.09-.14,0-.57-.15h0a12.77,12.77,0,0,1-2-.71l-.13-.05A13,13,0,0,1,47,157H66.73A12.94,12.94,0,0,1,62.45,160.26Zm6.29-6.45H45a11.73,11.73,0,0,1-.94-3.93H69.67A12,12,0,0,1,68.74,153.81ZM44,146.67v-3.74H69.7v3.74Zm8.11-29.84a41.35,41.35,0,0,0,4.55.23,44.16,44.16,0,0,0,4.86-.26,75.09,75.09,0,0,0-.43,9.34A134.78,134.78,0,0,0,62,139.72H51.87A135.16,135.16,0,0,0,52.62,126,78.48,78.48,0,0,0,52.14,116.83ZM75.4,128.64c-3.07,1.26-5.72,2.35-5.7,5.09v6H65.31c-.64-5.09-1.41-15.61-.34-23.48a22.45,22.45,0,0,0,5.85-2.09c3.13-1.7,5-4.11,5-6.43,0-2.16-1.69-4.35-5.47-4.35a6.45,6.45,0,0,0-4.92,2.23c-1.52,1.67-2.64,4.31-3.36,7.9a38.43,38.43,0,0,1-5.38.35,39.32,39.32,0,0,1-5.06-.31c-.73-3.68-1.87-6.36-3.4-8a6.3,6.3,0,0,0-4.74-2.15c-3.85,0-5.61,2.32-5.61,4.48,0,2.35,1.79,4.67,4.9,6.36a21.33,21.33,0,0,0,5.95,2.09c1.07,7.86.38,18.32-.2,23.42H44v-6c0-2-2-2.87-4.59-4-6-2.56-17.11-7.33-17.11-27.79,0-18.39,15.49-33.34,34.54-33.34S91.4,83.59,91.4,102C91.4,122.08,81.77,126,75.4,128.64Zm-9.78-15.87a11.71,11.71,0,0,1,2.3-5,3.16,3.16,0,0,1,2.43-1.15c.51,0,2.14.08,2.14,1.14,0,.91-1,2.39-3.31,3.63A17.54,17.54,0,0,1,65.62,112.77Zm-17.52.08a17.54,17.54,0,0,1-3.68-1.43c-2.37-1.29-3.21-2.73-3.21-3.57,0-1.18,1.74-1.27,2.28-1.27a3,3,0,0,1,2.26,1.07A12.11,12.11,0,0,1,48.1,112.85Z"/></g></svg>