<svg id="Investigacion" xmlns="http://www.w3.org/2000/svg" xmlns:xlink="http://www.w3.org/1999/xlink" viewBox="0 0 1920 1080"><defs><style>.cls-1{fill:#ebf0f3;}.cls-2{fill:#b7d0e3;}.cls-3{fill:#cee0ea;}.cls-4{fill:#fff;}.cls-5{fill:#554e5b;}.cls-6{fill:#ffb376;}.cls-7{fill:#ff9863;}.cls-8{fill:#fda13f;}.cls-9{fill:#fd802e;}.cls-10{fill:#6289cc;}.cls-11{fill:#4872b0;}.cls-12{fill:#cccc57;}.cls-13{fill:#a1a643;}.cls-14{fill:#ff9963;}.cls-15{fill:#673c49;}.cls-16{fill:#ffb476;}.cls-17{fill:#512b39;}.cls-18{fill:#563b36;}.cls-19{fill:#99e9ed;}.cls-20{fill:#d7fbff;}.cls-21{fill:#acf5ff;}.cls-22,.cls-28{opacity:0.3;isolation:isolate;}.cls-22{fill:url(#Degradado_sin_nombre_3);}.cls-23{fill:#fdc957;}.cls-24{fill:url(#Degradado_sin_nombre_4);}.cls-25{fill:#83d1de;}.cls-26{fill:#70bbcc;}.cls-27{fill:#97e2ed;}.cls-28{fill:url(#Degradado_sin_nombre_3-2);}.cls-29{fill:url(#Degradado_sin_nombre_4-2);}.cls-30{fill:#9c2b20;}.cls-31{fill:#831a15;}.cls-32{fill:#fd5590;}.cls-33{fill:#ed307e;}.cls-34{fill:#fda84d;}.cls-35{fill:#88509e;}.cls-36{fill:#344760;}.cls-37{fill:#4c607f;}.cls-38{fill:#5d7794;}.cls-39{fill:#673036;}</style><linearGradient id="Degradado_sin_nombre_3" x1="448.41" y1="586.4" x2="448.41" y2="979.58" gradientTransform="matrix(1, 0, 0, -1, 539.16, 1322.4)" gradientUnits="userSpaceOnUse"><stop offset="0" stop-color="#fff" stop-opacity="0"/><stop offset="1" stop-color="#ffcc25" stop-opacity="0.4"/></linearGradient><linearGradient id="Degradado_sin_nombre_4" x1="448.41" y1="1027.02" x2="448.41" y2="1222.81" gradientTransform="matrix(1, 0, 0, -1, 539.16, 1322.4)" gradientUnits="userSpaceOnUse"><stop offset="0" stop-color="#84d2df"/><stop offset="1" stop-color="#fff" stop-opacity="0"/></linearGradient><linearGradient id="Degradado_sin_nombre_3-2" x1="715.25" y1="586.4" x2="715.25" y2="979.58" xlink:href="#Degradado_sin_nombre_3"/><linearGradient id="Degradado_sin_nombre_4-2" x1="715.25" y1="1027.02" x2="715.25" y2="1222.81" xlink:href="#Degradado_sin_nombre_4"/></defs><title>investigacion</title><path class="cls-1" d="M1721.66,980.9c0,10.7-339.82,19.37-759,19.37s-759-8.67-759-19.37,339.82-19.38,759-19.38S1721.66,970.19,1721.66,980.9Z"/><path class="cls-2" d="M1514.82,558.59l-19.2-12.73h0a26,26,0,0,0-15.9-4.45l-834,42.13a27.72,27.72,0,0,0-26.3,29.07v0l17.12,339.08a26.24,26.24,0,0,0,13.08,21.41L666,983.72c1.06-1.25,833.46-49.31,833.46-49.31A26.24,26.24,0,0,0,1524.42,907Z"/><path class="cls-1" d="M1516.14,945.2,680.7,987.35a26.26,26.26,0,0,1-27.57-24.85v0L636.05,623.37a27.74,27.74,0,0,1,26.28-29.09l834-42.08a26.26,26.26,0,0,1,27.57,24.88v0L1541,917.66a26.26,26.26,0,0,1-24.89,27.54Z"/><polygon class="cls-3" points="722.68 678.39 762.79 675.41 757.42 670.58 670.11 674.98 672.75 727.23 678.12 732.08 678.8 726.94 725.02 724.6 722.68 678.39"/><rect class="cls-4" x="676.76" y="677.55" width="87.42" height="52.33" transform="translate(-34.56 37.22) rotate(-2.89)"/><polygon class="cls-3" points="734.14 905.33 739.18 904.12 733.83 899.28 681.56 901.92 684.2 954.18 689.57 959.02 690.26 953.87 736.46 951.54 734.14 905.33"/><rect class="cls-4" x="688.22" y="905.41" width="52.33" height="52.33" transform="translate(-46.06 37.2) rotate(-2.89)"/><polygon class="cls-3" points="810.43 901.48 815.49 900.28 810.12 895.42 757.87 898.06 760.5 950.33 765.86 955.17 766.55 950.02 812.76 947.69 810.43 901.48"/><rect class="cls-4" x="764.52" y="901.55" width="52.33" height="52.33" transform="translate(-45.77 41.04) rotate(-2.89)"/><polygon class="cls-3" points="915.25 896.18 920.31 894.99 914.95 890.14 834.16 894.21 836.79 946.47 842.16 951.33 842.85 946.17 889.06 943.84 915.25 896.18"/><rect class="cls-4" x="840.84" y="896.94" width="80.89" height="52.33" transform="translate(-45.42 45.61) rotate(-2.89)"/><polygon class="cls-3" points="1259.9 878.79 1281.34 876.77 1275.97 871.92 938.5 888.95 941.13 941.21 946.5 946.05 947.19 940.9 993.4 938.58 1259.9 878.79"/><rect class="cls-4" x="944.98" y="885.23" width="337.9" height="52.33" transform="translate(-44.53 57.32) rotate(-2.89)"/><polygon class="cls-3" points="898.42 669.52 903.48 668.32 898.13 663.47 845.86 666.11 848.5 718.37 853.85 723.21 854.54 718.07 900.75 715.74 898.42 669.52"/><rect class="cls-4" x="852.51" y="669.59" width="52.33" height="52.33" transform="translate(-33.96 45.19) rotate(-2.89)"/><polygon class="cls-3" points="828.32 673.06 833.38 671.86 828.02 667.01 775.76 669.64 778.4 721.91 783.75 726.76 784.44 721.6 830.65 719.27 828.32 673.06"/><rect class="cls-4" x="782.41" y="673.13" width="52.33" height="52.33" transform="translate(-34.23 41.66) rotate(-2.89)"/><polygon class="cls-3" points="856.79 748.97 861.85 747.77 856.48 742.92 804.23 745.56 806.87 797.82 812.22 802.67 812.91 797.51 859.12 795.18 856.79 748.97"/><rect class="cls-4" x="810.88" y="749.05" width="52.33" height="52.33" transform="translate(-38.02 43.19) rotate(-2.89)"/><polygon class="cls-3" points="881.63 821.6 886.68 820.4 881.32 815.54 829.06 818.18 831.69 870.45 837.06 875.28 837.75 870.14 883.96 867.81 881.63 821.6"/><rect class="cls-4" x="835.64" y="821.75" width="52.33" height="52.33" transform="translate(-41.51 44.37) rotate(-2.88)"/><polygon class="cls-3" points="956.13 817.83 961.19 816.63 955.82 811.79 903.57 814.43 906.2 866.68 911.56 871.54 912.25 866.39 958.46 864.04 956.13 817.83"/><rect class="cls-4" x="910.16" y="818" width="52.33" height="52.33" transform="translate(-41.37 48.28) rotate(-2.89)"/><polygon class="cls-3" points="1030.63 814.08 1035.69 812.88 1030.34 808.03 978.07 810.66 980.71 862.93 986.06 867.78 986.75 862.62 1032.96 860.29 1030.63 814.08"/><rect class="cls-4" x="984.73" y="814.15" width="52.33" height="52.33" transform="translate(-41.08 52.04) rotate(-2.89)"/><polygon class="cls-3" points="1105.13 810.31 1110.19 809.12 1104.83 804.27 1052.57 806.9 1055.21 859.17 1060.57 864.01 1061.26 858.86 1107.47 856.53 1105.13 810.31"/><rect class="cls-4" x="1059.23" y="810.39" width="52.33" height="52.33" transform="translate(-40.8 55.79) rotate(-2.89)"/><polygon class="cls-3" points="1179.64 806.56 1184.7 805.36 1179.34 800.51 1127.07 803.15 1129.71 855.41 1135.07 860.26 1135.76 855.11 1181.97 852.77 1179.64 806.56"/><rect class="cls-4" x="1133.73" y="806.64" width="52.33" height="52.33" transform="translate(-40.51 59.54) rotate(-2.89)"/><polygon class="cls-3" points="1254.15 802.8 1259.2 801.6 1253.84 796.75 1201.58 799.38 1204.22 851.65 1209.57 856.49 1210.26 851.34 1256.48 849.01 1254.15 802.8"/><rect class="cls-4" x="1208.23" y="802.86" width="52.33" height="52.33" transform="translate(-40.23 63.29) rotate(-2.89)"/><polygon class="cls-3" points="1328.65 799.04 1333.71 797.83 1328.35 792.99 1276.08 795.63 1278.72 847.89 1284.09 852.73 1284.78 847.59 1330.99 845.25 1328.65 799.04"/><rect class="cls-4" x="1282.68" y="799.23" width="52.33" height="52.33" transform="translate(-39.82 66.8) rotate(-2.88)"/><polygon class="cls-3" points="1354.64 873.73 1359.7 872.53 1354.35 867.68 1302.08 870.32 1304.72 922.58 1310.08 927.42 1310.77 922.27 1356.98 919.94 1354.64 873.73"/><rect class="cls-4" x="1308.75" y="873.78" width="52.33" height="52.33" transform="translate(-43.68 68.45) rotate(-2.89)"/><polygon class="cls-3" points="1499.26 866.43 1504.31 865.23 1498.95 860.39 1446.69 863.02 1449.33 915.28 1454.68 920.13 1455.37 914.98 1501.58 912.64 1499.26 866.43"/><rect class="cls-4" x="1453.35" y="866.49" width="52.33" height="52.33" transform="translate(-43.12 75.73) rotate(-2.89)"/><polygon class="cls-3" points="929.92 745.28 934.97 744.08 929.61 739.24 877.34 741.88 879.98 794.13 885.35 798.98 886.04 793.83 932.24 791.49 929.92 745.28"/><rect class="cls-4" x="883.93" y="745.43" width="52.33" height="52.33" transform="translate(-37.62 46.7) rotate(-2.88)"/><polygon class="cls-3" points="1003.93 741.55 1008.99 740.35 1003.62 735.49 951.37 738.13 954 790.4 959.36 795.25 960.05 790.09 1006.26 787.76 1003.93 741.55"/><rect class="cls-4" x="957.95" y="741.71" width="52.33" height="52.33" transform="translate(-37.34 50.42) rotate(-2.88)"/><polygon class="cls-3" points="1077.95 737.82 1083 736.61 1077.64 731.76 1025.37 734.4 1028.01 786.67 1033.38 791.51 1034.07 786.36 1080.28 784.03 1077.95 737.82"/><rect class="cls-4" x="1032.04" y="737.88" width="52.33" height="52.33" transform="translate(-37.18 54.32) rotate(-2.89)"/><polygon class="cls-3" points="1152.29 734.06 1157.34 732.86 1151.98 728.02 1099.72 730.65 1102.36 782.91 1107.72 787.76 1108.41 782.61 1154.62 780.27 1152.29 734.06"/><rect class="cls-4" x="1106.31" y="734.23" width="52.33" height="52.33" transform="translate(-36.78 57.86) rotate(-2.88)"/><polygon class="cls-3" points="1225.32 730.38 1230.38 729.17 1225.01 724.33 1172.76 726.97 1175.4 779.22 1180.75 784.07 1181.44 778.92 1227.65 776.59 1225.32 730.38"/><rect class="cls-4" x="1179.42" y="730.44" width="52.33" height="52.33" transform="translate(-36.61 61.75) rotate(-2.89)"/><polygon class="cls-3" points="1299.01 726.66 1304.06 725.46 1298.71 720.61 1246.44 723.25 1249.08 775.5 1254.44 780.36 1255.13 775.21 1301.34 772.87 1299.01 726.66"/><rect class="cls-4" x="1253.04" y="726.84" width="52.33" height="52.33" transform="translate(-36.22 65.22) rotate(-2.88)"/><polygon class="cls-3" points="1373.03 722.93 1378.08 721.72 1372.72 716.87 1320.46 719.51 1323.1 771.78 1328.45 776.62 1329.14 771.47 1375.35 769.14 1373.03 722.93"/><rect class="cls-4" x="1327.05" y="723.1" width="52.33" height="52.33" transform="translate(-35.94 68.94) rotate(-2.88)"/><polygon class="cls-3" points="969.18 665.95 974.24 664.74 968.88 659.9 916.62 662.54 919.25 714.8 924.61 719.64 925.3 714.5 971.51 712.16 969.18 665.95"/><rect class="cls-4" x="923.21" y="666.11" width="52.33" height="52.33" transform="translate(-33.58 48.57) rotate(-2.88)"/><polygon class="cls-3" points="1040.14 662.37 1045.2 661.17 1039.84 656.33 987.57 658.97 990.21 711.22 995.58 716.07 996.26 710.91 1042.48 708.58 1040.14 662.37"/><rect class="cls-4" x="994.17" y="662.53" width="52.33" height="52.33" transform="translate(-33.31 52.14) rotate(-2.88)"/><polygon class="cls-3" points="1111.51 658.77 1116.57 657.57 1111.2 652.72 1058.94 655.36 1061.57 707.62 1066.94 712.46 1067.63 707.32 1113.84 704.99 1111.51 658.77"/><rect class="cls-4" x="1065.59" y="658.84" width="52.33" height="52.33" transform="translate(-33.15 55.92) rotate(-2.89)"/><polygon class="cls-3" points="1182.43 655.19 1187.48 653.99 1182.12 649.15 1129.86 651.79 1132.49 704.04 1137.86 708.89 1138.55 703.74 1184.76 701.4 1182.43 655.19"/><rect class="cls-4" x="1137.73" y="656.64" width="52.4" height="52.4" transform="translate(-32.65 58.98) rotate(-2.86)"/><polygon class="cls-3" points="1254.03 651.57 1259.09 650.38 1253.73 645.53 1201.47 648.17 1204.11 700.43 1209.47 705.27 1210.15 700.13 1256.37 697.79 1254.03 651.57"/><rect class="cls-4" x="1208.13" y="651.65" width="52.33" height="52.33" transform="translate(-32.6 63.09) rotate(-2.89)"/><polygon class="cls-3" points="1324.91 648 1329.97 646.8 1324.6 641.96 1272.35 644.6 1274.99 696.85 1280.34 701.7 1281.03 696.54 1327.24 694.21 1324.91 648"/><rect class="cls-4" x="1279.01" y="648.06" width="52.33" height="52.33" transform="translate(-32.33 66.66) rotate(-2.89)"/><polygon class="cls-3" points="1488.92 639.73 1493.98 638.53 1488.61 633.67 1341.89 641.08 1344.52 693.34 1349.88 698.19 1369.02 692.11 1491.25 685.94 1488.92 639.73"/><rect class="cls-4" x="1348.48" y="642.16" width="146.92" height="52.33" transform="translate(-31.89 72.54) rotate(-2.89)"/><polygon class="cls-3" points="781.59 752.73 786.65 751.53 781.28 746.68 673.96 752.09 676.6 804.36 681.97 809.2 682.64 804.05 783.92 798.94 781.59 752.73"/><rect class="cls-4" x="680.59" y="754.19" width="107.46" height="52.33" transform="translate(-38.41 38.02) rotate(-2.89)"/><polygon class="cls-3" points="806.26 825.36 811.32 824.15 805.96 819.31 677.68 825.78 680.32 878.04 685.68 882.89 686.37 877.73 808.6 871.57 806.26 825.36"/><rect class="cls-4" x="684.3" y="827.33" width="128.43" height="52.33" transform="translate(-42.08 38.82) rotate(-2.89)"/><polygon class="cls-3" points="1492.23 716.87 1497.29 715.66 1491.93 710.82 1390.23 715.95 1392.87 768.22 1398.23 773.06 1398.91 767.91 1494.56 763.09 1492.23 716.87"/><rect class="cls-4" x="1397.08" y="718.13" width="101.62" height="52.33" transform="translate(-35.68 73.95) rotate(-2.89)"/><polygon class="cls-3" points="1496.85 790.52 1501.91 789.31 1496.55 784.46 1349.16 791.91 1351.8 844.16 1357.16 849.01 1357.85 843.87 1499.19 836.72 1496.85 790.52"/><rect class="cls-4" x="1355.76" y="792.96" width="147.57" height="52.33" transform="translate(-39.48 73.12) rotate(-2.89)"/><polygon class="cls-3" points="719.84 621.98 724.89 620.78 719.53 615.93 667.27 618.58 668.79 648.86 674.16 653.71 674.81 647.66 721.02 645.33 719.84 621.98"/><rect class="cls-4" x="673.37" y="622.07" width="52.33" height="30.33" transform="translate(-31.24 36.08) rotate(-2.89)"/><polygon class="cls-3" points="795.48 618.16 800.54 616.96 795.17 612.12 742.92 614.75 744.44 645.03 749.81 649.89 750.45 643.85 796.66 641.51 795.48 618.16"/><rect class="cls-4" x="749.01" y="618.25" width="52.33" height="30.33" transform="translate(-30.95 39.89) rotate(-2.89)"/><polygon class="cls-3" points="871.13 614.34 876.19 613.14 870.82 608.3 818.56 610.94 820.09 641.23 825.45 646.07 826.09 640.03 872.3 637.69 871.13 614.34"/><rect class="cls-4" x="824.65" y="614.43" width="52.33" height="30.33" transform="translate(-30.66 43.7) rotate(-2.89)"/><polygon class="cls-3" points="946.78 610.53 951.82 609.33 946.47 604.48 894.2 607.12 895.73 637.41 901.09 642.25 901.74 636.21 947.95 633.89 946.78 610.53"/><rect class="cls-4" x="900.31" y="610.6" width="52.33" height="30.33" transform="translate(-30.37 47.51) rotate(-2.89)"/><polygon class="cls-3" points="1022.42 606.72 1027.47 605.51 1022.12 600.66 969.85 603.3 971.38 633.59 976.74 638.44 977.39 632.39 1023.6 630.07 1022.42 606.72"/><rect class="cls-4" x="975.96" y="606.79" width="52.33" height="30.33" transform="translate(-30.08 51.32) rotate(-2.89)"/><polygon class="cls-3" points="1098.06 602.9 1103.12 601.69 1097.75 596.85 1045.5 599.49 1047.03 629.77 1052.39 634.62 1053.03 628.59 1099.24 626.25 1098.06 602.9"/><rect class="cls-4" x="1051.59" y="602.98" width="52.33" height="30.33" transform="translate(-29.8 55.13) rotate(-2.89)"/><polygon class="cls-3" points="1173.71 599.07 1178.77 597.88 1173.4 593.03 1121.15 595.67 1122.67 625.96 1128.03 630.8 1128.67 624.77 1174.89 622.43 1173.71 599.07"/><rect class="cls-4" x="1127.25" y="599.16" width="52.33" height="30.33" transform="translate(-29.51 58.93) rotate(-2.89)"/><polygon class="cls-3" points="1426.45 869.84 1431.5 868.65 1426.15 863.8 1373.88 866.43 1374.97 888.06 1380.34 892.9 1380.97 886.86 1427.3 886.73 1426.45 869.84"/><rect class="cls-4" x="1379.76" y="869.94" width="52.33" height="21.64" transform="translate(-42.62 72.01) rotate(-2.89)"/><polygon class="cls-3" points="1428.61 901.28 1433.67 900.23 1428.3 895.23 1376.04 897.87 1377.13 919.51 1382.49 924.36 1383.14 918.33 1429.35 915.99 1428.61 901.28"/><rect class="cls-4" x="1381.85" y="901.49" width="52.33" height="21.67" transform="translate(-44.06 71.9) rotate(-2.88)"/><polygon class="cls-3" points="1249.36 595.27 1254.42 594.06 1249.05 589.21 1196.78 591.85 1198.31 622.14 1203.68 626.98 1204.32 620.95 1250.54 618.62 1249.36 595.27"/><rect class="cls-4" x="1202.88" y="595.35" width="52.33" height="30.33" transform="translate(-29.22 62.74) rotate(-2.89)"/><polygon class="cls-3" points="1325 591.45 1330.05 590.24 1324.7 585.39 1272.43 588.03 1273.96 618.32 1279.33 623.17 1279.97 617.13 1326.18 614.8 1325 591.45"/><rect class="cls-4" x="1278.54" y="591.53" width="52.33" height="30.33" transform="translate(-28.93 66.55) rotate(-2.89)"/><polygon class="cls-3" points="1400.64 587.63 1405.7 586.42 1400.34 581.58 1348.08 584.22 1349.61 614.5 1354.97 619.35 1355.61 613.32 1401.82 610.98 1400.64 587.63"/><rect class="cls-4" x="1354.13" y="587.83" width="52.33" height="30.33" transform="translate(-28.55 70.11) rotate(-2.88)"/><polygon class="cls-3" points="1476.29 583.82 1481.35 582.61 1475.98 577.77 1423.73 580.4 1425.26 610.68 1430.61 615.53 1431.26 609.5 1477.47 607.16 1476.29 583.82"/><rect class="cls-4" x="1429.82" y="583.89" width="52.33" height="30.33" transform="translate(-28.35 74.17) rotate(-2.89)"/><path class="cls-5" d="M1171.63,846.52l-26.27-9.9-.32-6.19L1170.19,818l.37,7.29L1153,833.06l18.29,6.2Z"/><path class="cls-5" d="M702.62,864.1l5.3-1.06a3.93,3.93,0,0,0,1.52,2.3,4.72,4.72,0,0,0,3,.66,5.25,5.25,0,0,0,3.09-.93,1.64,1.64,0,0,0,.64-1.46,1.5,1.5,0,0,0-.43-1,4.6,4.6,0,0,0-1.84-.61q-6.57-1.07-8.36-2.2a5.21,5.21,0,0,1-2.63-4.44,5.57,5.57,0,0,1,1.85-4.6c1.33-1.27,3.45-2,6.36-2.12a11.17,11.17,0,0,1,6.26,1.06,6.94,6.94,0,0,1,3,3.87l-5,1.22A3.15,3.15,0,0,0,714,853a4.47,4.47,0,0,0-2.61-.5,5.78,5.78,0,0,0-3,.75,1.27,1.27,0,0,0-.56,1.06,1.18,1.18,0,0,0,.59.95,20.22,20.22,0,0,0,5.08,1.26,14.73,14.73,0,0,1,6.12,2.12,5,5,0,0,1,1.88,3.9,6.16,6.16,0,0,1-2.12,4.92c-1.49,1.41-3.75,2.2-6.8,2.34a11.2,11.2,0,0,1-6.64-1.34A7.73,7.73,0,0,1,702.62,864.1Z"/><path class="cls-5" d="M731.44,840.38l.52,10.28a7.93,7.93,0,0,1,6-3.34,7.82,7.82,0,0,1,3.38.52,5.36,5.36,0,0,1,2.33,1.65,6.2,6.2,0,0,1,1.15,2.31,20.07,20.07,0,0,1,.47,4l.61,11.9-5.37.27L740,857.28a15.33,15.33,0,0,0-.51-4,2.72,2.72,0,0,0-1.14-1.32,3.66,3.66,0,0,0-2-.41,4.44,4.44,0,0,0-2.36.79,3.73,3.73,0,0,0-1.44,2,12,12,0,0,0-.31,3.86l.52,10.17-5.37.28-1.41-28Z"/><path class="cls-5" d="M751.34,844.4l-.26-5,5.37-.26.25,5Zm1.16,23-1.06-20.3,5.37-.27,1.06,20.29Z"/><path class="cls-5" d="M761.34,846.6l3-.15-.07-1.52a10.21,10.21,0,0,1,.35-3.85,4.36,4.36,0,0,1,1.9-2.12,7.71,7.71,0,0,1,3.66-1,15,15,0,0,1,4.52.46l-.54,3.78a10.21,10.21,0,0,0-2.47-.18,2.18,2.18,0,0,0-1.65.64,3.15,3.15,0,0,0-.4,2.12l.07,1.42,4-.2.21,4.24-4,.2.81,16.07-5.36.26-.81-16-3,.14Z"/><path class="cls-5" d="M788.21,845.24l.21,4.25-3.67.18.41,8.17a20.16,20.16,0,0,0,.26,2.9,1.08,1.08,0,0,0,.51.64,1.48,1.48,0,0,0,.92.24A7.85,7.85,0,0,0,789,861l.67,4.14a10.78,10.78,0,0,1-4.24,1.06,6.73,6.73,0,0,1-2.64-.36,3.92,3.92,0,0,1-1.79-1.17,5.35,5.35,0,0,1-.86-2.06,29.87,29.87,0,0,1-.36-3.77l-.44-8.85-2.46.12-.21-4.24,2.46-.12-.2-4,5.22-3.39.36,7.16Z"/><path class="cls-5" d="M698.86,696.77l.21,4.24-3.67.18.41,8.19a19.89,19.89,0,0,0,.26,2.88,1.13,1.13,0,0,0,.51.65,1.48,1.48,0,0,0,.92.23,6.84,6.84,0,0,0,2.12-.64l.67,4.15a10.78,10.78,0,0,1-4.24,1.06,6.56,6.56,0,0,1-2.64-.36,3.59,3.59,0,0,1-1.77-1.18,4.9,4.9,0,0,1-.87-2,26.85,26.85,0,0,1-.36-3.79l-.45-8.84-2.46.12-.21-4.24,2.46-.12-.2-4,5.22-3.41.43,7.16Z"/><path class="cls-5" d="M708.41,702.49l-4.91-.63a7.66,7.66,0,0,1,2.61-4.5,10.45,10.45,0,0,1,5.89-1.72,12.79,12.79,0,0,1,5.39.59,5.36,5.36,0,0,1,2.59,2,11.18,11.18,0,0,1,.95,4.77l.26,6.27a21,21,0,0,0,.47,3.94,11.35,11.35,0,0,0,1.06,2.67l-5.31.26q-.23-.52-.6-1.56c-.1-.3-.18-.52-.21-.62a9.47,9.47,0,0,1-2.86,2.12,8.23,8.23,0,0,1-3.3.85,6.89,6.89,0,0,1-5-1.46,5.66,5.66,0,0,1-2-4.24,5.75,5.75,0,0,1,.67-3.1,5.26,5.26,0,0,1,2.2-2.18,17.61,17.61,0,0,1,4.24-1.47,29.65,29.65,0,0,0,5.14-1.58v-.53a2.78,2.78,0,0,0-.87-2.12,4.61,4.61,0,0,0-2.91-.52,4,4,0,0,0-2.21.68A4.07,4.07,0,0,0,708.41,702.49Zm7.42,4a31.59,31.59,0,0,1-3.18,1,9.88,9.88,0,0,0-2.88,1.06,2.25,2.25,0,0,0-1,1.94,2.68,2.68,0,0,0,1,1.91,2.94,2.94,0,0,0,2.18.71,4.77,4.77,0,0,0,2.73-1.06,3.47,3.47,0,0,0,1.19-1.85,11.48,11.48,0,0,0,.07-2.62Z"/><path class="cls-5" d="M728,715.64l-1.41-28,5.37-.28.51,10.09a7.6,7.6,0,0,1,5.74-3.12,7.89,7.89,0,0,1,6.26,2.37q2.57,2.56,2.82,7.59c.17,3.46-.53,6.17-2.12,8.13a7.71,7.71,0,0,1-5.86,3.11,7.44,7.44,0,0,1-3.48-.7,8.15,8.15,0,0,1-3-2.42l.14,3Zm4.8-10.86a8.67,8.67,0,0,0,1.23,4.63,4.23,4.23,0,0,0,3.81,2,3.84,3.84,0,0,0,3-1.63,7.44,7.44,0,0,0,1-4.85q-.18-3.48-1.5-5a4.17,4.17,0,0,0-5.9-.31,4.37,4.37,0,0,0-.55.59,6.91,6.91,0,0,0-1.1,4.57Z"/><path class="cls-5" d="M1224.5,843.89l-.37-7.24,17.61-8-18.32-6.08-.36-7.18,26.3,9.83.32,6.14Z"/><path class="cls-5" d="M1300.51,845.46l7-36.9,5.12-.26-7.08,36.91Z"/><path class="cls-6" d="M688.09,447.5c-9.14,1.06-14.53,6.36-20.64,12.55-5.84,5.9-11.19,10.14-16.61,16.05-1.06,1.06,17.93,18.72,18.94,18.11,7.42-4.44,17-11.95,20.6-16,2-.16,9.26.93,12.35-2.12,3.77-3.73,7.67-14.56,2.27-21.78C702,450.35,690.48,447.22,688.09,447.5Z"/><path class="cls-6" d="M728.07,445.49c1.27-1.37-.6-7-2.2-6.43-5.42,1.86-8.06,4.6-12.13,7.85a22,22,0,0,1-14.11,5.41,131.8,131.8,0,0,1-14.19-.43c-2.48-.17-2.38,3.27.08,3.44l2.92.21a1.7,1.7,0,0,0,.06,2.4,1.68,1.68,0,0,0,.87.44c7.94,2.6,18.15,3.69,25.33-1.11A88.61,88.61,0,0,0,728.07,445.49Z"/><path class="cls-6" d="M733.37,458.51c1.26-1.37-.21-6.18-1.06-6.14-5.71.22-8.78,3-12.83,6.23A22.13,22.13,0,0,1,705.36,464a129.2,129.2,0,0,1-14.19-.43c-2.47-.17-2.38,3.27.07,3.43l2.93.22a1.71,1.71,0,0,0,.1,2.42,1.66,1.66,0,0,0,.83.43c7.94,2.59,18.15,3.69,25.34-1.13A76.78,76.78,0,0,0,733.37,458.51Z"/><path class="cls-6" d="M728,469.6c1.56-1.06,3.64-2.06,3.39-4.06-.11-.74-.33-2.81-1.2-3-5.64-.87-9.65,2.61-14.39,5a22.91,22.91,0,0,1-15.09,2.57A125.72,125.72,0,0,1,686.87,467a1.73,1.73,0,1,0-.9,3.34l.16,0,2.8.77c-1.06.67-5,4.24-3.75,4.94,7.13,4.05,20.82,5.1,29,1.78C719.1,475.89,723.76,472.55,728,469.6Z"/><path class="cls-6" d="M733.79,451.93c1.26-1.36-1-6.43-2.79-5.84a28.54,28.54,0,0,0-11.14,6.09,22.08,22.08,0,0,1-14.11,5.41,129.39,129.39,0,0,1-14.2-.44c-2.47-.16-2.37,3.28.09,3.45l2.92.21a1.7,1.7,0,0,0,.93,2.84c7.94,2.59,18.15,3.69,25.33-1.11A78.57,78.57,0,0,0,733.79,451.93Z"/><path class="cls-7" d="M705,455.13s6.86,10.54-1.63,20.56C705.94,466,705,455.13,705,455.13Z"/><path class="cls-7" d="M695.05,453.11s1.56,6.67-6.55,11.67c0,0,6.92-3.65,7.94-6C697.71,455.75,695.05,453.11,695.05,453.11Z"/><path class="cls-6" d="M709.35,442.51c.82-.85-.43-6.76-2.47-6.93-5.72-.44-13.06,1.65-18.17,4.71-5,3-13.92,11.41-17,16.14-.77,1.18,5.46-.53,6.52-.2a1.69,1.69,0,0,0,1.43,1.34c7.17.79,9.1-5.46,14.35-8.82S705.53,446.57,709.35,442.51Z"/><path class="cls-8" d="M369.31,959.33c-5.78,2,16.85,21.88,16.85,21.88l22.32,2.45S397,977.58,385.84,971C373,963.56,373.84,957.86,369.31,959.33Z"/><polygon class="cls-9" points="386.7 987.7 407.98 988.24 408.48 983.66 378.81 980.4 386.7 987.7"/><path class="cls-8" d="M394,980.88c-2.26-4.16-5.4-8.24-8.16-13.64-6.74-13.2-3-17.62-7.6-18.78-5.92-1.47-20.15,9.32-20.15,9.32l29.26,23.64Z"/><path class="cls-9" d="M387.3,981.42,358,957.78l-2.9,3.59,31.56,26.33C386.87,987.69,387.3,981.42,387.3,981.42Z"/><path class="cls-8" d="M538.43,965.41c-5.21,2.38-9.33,18.63-9.33,18.63l48.26.29s-11.27-4.57-22.36-9.59C542.33,969,542.5,963.54,538.43,965.41Z"/><rect class="cls-9" x="551.11" y="962.17" width="4.33" height="48.27" transform="translate(-436.39 1533.55) rotate(-89.65)"/><path class="cls-10" d="M547.24,578.33c17.15,99.8,2,393.22,2,393.22l-15.69-.84S466.6,695,462.18,684s2.12-84.12,2.12-84.12Z"/><path class="cls-11" d="M500.63,671.48c-3.73-10.3-41.18-62.57-41.18-62.57s-1.69,64,2.73,75.06S533.6,970.71,533.6,970.71,504.75,682.89,500.63,671.48Z"/><polygon class="cls-10" points="384.91 956.54 450.5 822.1 504.95 667.08 525.45 651.36 522.16 575.59 416.5 584.02 409.44 803.2 369 948.32 384.91 956.54"/><polygon class="cls-11" points="501.88 683.38 474.7 661.22 500.85 668.38 521.35 656.72 501.88 683.38"/><path class="cls-11" d="M424.42,808s2.18-134.8,23.24-172.4c11.43-20.41,103.86-21.33,103.86-21.33l-4.39-41.35L416.5,584,409.45,803.2,369,948.31l3.81,2Z"/><path class="cls-12" d="M490.65,458.32s25.88,69.46,88,89.45c29.24,9.41,108.27-60.65,108.27-60.65l-19.61-34.34s-70.09,39.87-73.69,39.3c-9.63-1.54-47.07-79.28-80.74-86.82C498.88,402.11,485.15,432.89,490.65,458.32Z"/><path class="cls-13" d="M528.8,426.54s26.29,92.87,54,101.31C603.28,534.08,687,487.12,687,487.12s-69.17,65.16-103.34,61.63-72.75-56.67-72.75-56.67Z"/><path class="cls-12" d="M471.71,395.19c27.57-1.06,46.74,8.95,52.84,24.94,32,83.77,33.08,179.53,33.08,179.53s-92.81,24.21-144.21,14.19c0,0-15.48-145.91,1.89-188C427.23,397.08,452,395.94,471.71,395.19Z"/><path class="cls-6" d="M508.67,364c-.55,1.4-1.06,2.72-1.44,3.94a68,68,0,0,0-2.37,9.86,75.18,75.18,0,0,0-1.06,9.11,84,84,0,0,0,.34,15.7c-25.74,12.73-53.64-4.78-53.64-4.78a83.9,83.9,0,0,0,3-12.41,189.24,189.24,0,0,0,2.33-20.69,1.55,1.55,0,0,0,0-.43,1.5,1.5,0,0,0,0-.3Z"/><path class="cls-14" d="M508.67,364c-.55,1.4-1.06,2.72-1.44,3.94a40.77,40.77,0,0,0-2.37,9.86,75.18,75.18,0,0,0-1.06,9.11c-12.23,5.38-26,7.54-36.05,5.38a34.28,34.28,0,0,1-14.32-6.87,191.73,191.73,0,0,0,2.33-20.69,1.55,1.55,0,0,0,0-.43,1.5,1.5,0,0,0,0-.3Z"/><path class="cls-4" d="M442.83,392.67s20.39,14.1,47.78,14.15c0,0-4.85,9.85-6.15,16.84C484.5,423.63,449,413.63,442.83,392.67Z"/><path class="cls-4" d="M500.86,401.62s-2.12,3.56-10.21,5.16l13.05,11.79s.19-14.22,0-16.25S500.86,401.62,500.86,401.62Z"/><path class="cls-13" d="M435.71,485.55s-7.54,15,7.12,35.43c17.47,24.39,54.55,72.62,114.76,78.63,0,0-93.78,25.87-144.21,14.19,0,0-9.08-104.08-6.36-140.13C408.07,460.77,435.71,485.55,435.71,485.55Z"/><path class="cls-15" d="M428.44,288.16s-26.26,53,31.48,86.28l5.3-44.24-20.06-31.71Z"/><path class="cls-16" d="M450.91,350s4.24,28.11,14.21,33.65,45,6,52.46-2.89,6-82.39,3.25-88.13-51.25-27-67.7-3.56S450.91,350,450.91,350Z"/><path class="cls-17" d="M472.41,303.84c.84-2.12,20.48-5.81,22.15-4.5,1.44,1.13,2.06,7.88,1.06,9.71-.54.95-21.45,1.31-21.72.62C473.15,308,472,304.89,472.41,303.84Z"/><path class="cls-17" d="M528.43,304.82c-.71-2.23-19.14-7.33-20.77-6.16-1.41,1.06-2.31,7.68-1.35,9.54.5,1,20.23,2.95,20.53,2.28C527.57,308.9,528.77,305.89,528.43,304.82Z"/><path class="cls-18" d="M484.39,325.64c.7,4.1,3.18,6.79,5.73,6.05s4.39-5.08,3.72-9.65-3.54-7.43-6.22-6.15S483.68,321.46,484.39,325.64Z"/><path class="cls-18" d="M512.67,324.72c.19,4.16,2,7.42,4.05,7.42s3.83-3.73,3.65-8.22-2.12-7.81-4.33-7.42S512.49,320.56,512.67,324.72Z"/><path class="cls-4" d="M493.72,362.19s13.2,3.76,21.36-1.3c0,0,0,11.3-7.1,13.25S496.67,368.08,493.72,362.19Z"/><path class="cls-16" d="M507.26,331.73s6.7,14.66,5.18,18.55S500,352,500,352Z"/><path class="cls-14" d="M507.26,331.73A35.06,35.06,0,0,1,514.32,347a12.22,12.22,0,0,1,.07,2.42,4.48,4.48,0,0,1-1.27,2.91,7.16,7.16,0,0,1-4.85,1.6A19.4,19.4,0,0,1,500,352a74.14,74.14,0,0,0,8-.89,5.15,5.15,0,0,0,2.68-1.19c.28-.12.28-1.21.09-2.44-.36-2.45-1.06-5-1.72-7.66S507.73,334.51,507.26,331.73Z"/><path class="cls-15" d="M418.44,292a38,38,0,0,1,10-3.82c-4.83,6.17-10.71,38,4.38,58.32,4.06,5.45,9.7,5.41,12.26,3.09h.09c10.22-9.46,13.17-28.32,13.79-51.08,14.57-8.69,44.32-9.84,61.88-5.85a4.48,4.48,0,0,0,.82.1c8-.14,16.44-27.39,11.82-40,0-.05,0-.09,0-.15-1.4-3.67-3.9-6.07-7.91-6.17-25.45-.53-77.41-4.88-93.91,35.11A21.68,21.68,0,0,1,427.4,267c.19-2.7-4-2.51-4.24.19A25.24,25.24,0,0,0,428,283.93a42.47,42.47,0,0,0-11.86,4.48C413.82,289.81,416.09,293.33,418.44,292Z"/><path class="cls-17" d="M445.08,349.62h.1c10.22-9.46,13.17-28.31,13.79-51.08,14.56-8.69,44.32-9.84,61.88-5.84a4.48,4.48,0,0,0,.82.09c8-.14,16.44-27.39,11.82-40,2.79,9-5.45,18.63-17,23.83-17.89,8.15-72.88-9-67.81,11.57C455.31,315.13,443.06,350.83,445.08,349.62Z"/><path class="cls-6" d="M452.57,334.86c-3.35-3.43-17.51-7.5-19.28-1.84-2.83,9.05,8.1,26.51,21.21,19.44C459.21,349.87,455.47,337.84,452.57,334.86Z"/><path class="cls-14" d="M450.07,340.63s-10.37-6.8-11.35-3.73c-1.92,6,6.63,11,9.08,11.86,0,0-4.77-5.23-3.54-7.49S450.07,340.63,450.07,340.63Z"/><path class="cls-19" d="M459.85,514.54l-130.71,39a4.76,4.76,0,0,0-2.85,2.35h0l-2.77,5.1,3.18,1,24.43,82a4.77,4.77,0,0,0,5.95,3.18l126.26-37.67,4.55,1.38,2.66-4.91h0a4.74,4.74,0,0,0,.47-3.75L465.79,517.8a4.76,4.76,0,0,0-5.9-3.27Z"/><rect class="cls-20" x="332.74" y="537.05" width="145.96" height="97.69" rx="1.05" ry="1.05" transform="translate(-150.63 140.52) rotate(-16.62)"/><path class="cls-21" d="M485,613.23l-130.7,39,57.33-119.06,45.43-13.56a4.77,4.77,0,0,1,5.95,3.18l25.2,84.46a4.76,4.76,0,0,1-3.11,6Z"/><path class="cls-6" d="M433.28,616.72a.39.39,0,0,1-.11-.13c-4.15-9.65-16.29-16.69-26.39-12.53-6.86,2.82-8.59,10.1-8.82,16.87-.21,6.29,0,16.21,5.88,20a3.86,3.86,0,0,0,5.24-1.5,3.81,3.81,0,0,0,.28-.62,6.28,6.28,0,0,0,5.38,2.12,4.61,4.61,0,0,0,4.24-2.86c1.77,2.12,4,3,7,1.43a5.81,5.81,0,0,0,2.64-3.09c1.7,1.54,3.91,2.06,6.82.65C442.83,633.48,435.68,621.54,433.28,616.72Z"/><path class="cls-6" d="M437.46,603.61c-5.3-1.63-11.89-1-17.35-.44-.11,0-.19.07-.3.09-2.86,0-5.54,3.32-3.12,6,2.84,3.18,6.36,6.82,10.54,6.55,2.32-.15,4.35-2.12,6.65-1.59,3,.74,5.44,5.3,6.74,7.87,2.24,4.37,10.6-.66,9.08-5.23C448,611.67,443.17,605.37,437.46,603.61Z"/><polygon class="cls-6" points="420.6 609.42 408.12 584.43 387.42 598.05 402.18 620.84 420.6 609.42"/><path class="cls-12" d="M430.67,405.26s-85.78,43.31-101.86,106.6c-7.56,29.76,58.61,102.43,58.61,102.43l33.05-21.71s-40.21-57.19-39.83-60.81c.94-9.71,44.11-30.52,55.07-46.22C439.57,464.35,446.57,428.28,430.67,405.26Z"/><path class="cls-13" d="M435.71,485.55s-71.54,21-64.3,43.1,49.06,63.91,49.06,63.91-40.62-54.26-39.83-60.79S428.18,500.32,435.71,485.55Z"/><polygon class="cls-22" points="932.2 342.82 810.2 736 1164.95 736 1049.65 342.82 932.2 342.82"/><path class="cls-23" d="M1011.3,359.56a21.9,21.9,0,1,0-21.91,21.89h0A21.9,21.9,0,0,0,1011.3,359.56Z"/><path class="cls-4" d="M989.71,373.25c-5.18-.93-12.31-5-13.65-10.47-.47-2-3.48-1.14-3,.82,1.59,6.54,9.55,11.54,15.82,12.73C990.85,376.63,991.68,373.58,989.71,373.25Z"/><path class="cls-24" d="M993.08,285.37V99.59h-11V285.37C971.56,298.72,1003.59,298.72,993.08,285.37Z"/><path class="cls-25" d="M1073.15,361.59c-43.66-32.87-69.56-62.87-80.07-76.22h-11c-10.51,13.35-36.41,43.32-80.07,76.22Z"/><path class="cls-26" d="M993.08,285.37h-11c-10.51,13.35-36.41,43.32-80.07,76.22C902,361.59,1003.59,298.72,993.08,285.37Z"/><polygon class="cls-27" points="939.67 353.37 1052.75 353.37 1035.26 337.68 939.67 353.37"/><polygon class="cls-28" points="1199.03 342.82 1077.03 736 1431.78 736 1316.49 342.82 1199.03 342.82"/><circle class="cls-23" cx="1256.24" cy="359.56" r="21.89"/><path class="cls-4" d="M1256.54,373.25c-5.18-.93-12.3-5-13.64-10.47-.48-2-3.49-1.14-3,.82,1.59,6.54,9.54,11.54,15.82,12.73C1257.68,376.63,1258.52,373.58,1256.54,373.25Z"/><path class="cls-29" d="M1259.92,285.37V99.59h-11V285.37C1238.39,298.72,1270.43,298.72,1259.92,285.37Z"/><path class="cls-25" d="M1340,361.59c-43.67-32.87-69.56-62.87-80.07-76.22h-11c-10.51,13.35-36.4,43.32-80.07,76.22Z"/><path class="cls-26" d="M1259.92,285.37h-11c-10.51,13.35-36.4,43.32-80.07,76.22C1168.83,361.59,1270.43,298.72,1259.92,285.37Z"/><polygon class="cls-27" points="1206.5 353.37 1319.59 353.37 1302.09 337.68 1206.5 353.37"/><rect class="cls-10" x="1407.82" y="730.59" width="20.64" height="221.84"/><rect class="cls-11" x="1399.83" y="798.52" width="36.62" height="56.21" rx="3.45" ry="3.45"/><path class="cls-10" d="M1414.78,651.19h139.33l-42.54,178.15h-140.9l29.17-160.68C1399.83,657.77,1410.63,651.19,1414.78,651.19Z"/><path class="cls-10" d="M1462.38,834s-144.73,10-163.6-4.64c-5.13-4-5.53-25.79,11.46-25.79h141.47Z"/><path class="cls-11" d="M1556.92,651.61c-10.93-2.06-16.26,4-17.46,7.93l-29.79,144h-78.81c-13.39,0-23.91,18.42-12.72,25.79,15.46,10.2,83,2.76,100.93-2.69,24.79-7.54,47.83-156.55,47.83-156.55C1567.76,660.25,1563.55,652.86,1556.92,651.61Z"/><path class="cls-10" d="M1473.62,958.63h-111A12.37,12.37,0,0,1,1375,946.26h86.21a12.37,12.37,0,0,1,12.39,12.36Z"/><path class="cls-11" d="M1386.5,964.82a9.29,9.29,0,1,1-9.29-9.29,9.29,9.29,0,0,1,9.29,9.29Z"/><path class="cls-10" d="M1383.21,964.82a6,6,0,1,1-6-6,6,6,0,0,1,6,6Z"/><path class="cls-11" d="M1427.43,964.82a9.29,9.29,0,1,1-9.29-9.29,9.29,9.29,0,0,1,9.29,9.29Z"/><path class="cls-10" d="M1424.14,964.82a6,6,0,1,1-6-6h0a6,6,0,0,1,6,6Z"/><path class="cls-11" d="M1468.35,964.82a9.29,9.29,0,1,1-9.29-9.29h0A9.3,9.3,0,0,1,1468.35,964.82Z"/><path class="cls-10" d="M1465,964.82a6,6,0,1,1-6-6,6,6,0,0,1,6,6Z"/><path class="cls-30" d="M1368.45,495.53s-13.53,10-11.8,40.15c2.77,48.27-24,51.88-11.1,76.35,6.36,12,29.28,15.6,37.76,15.81s31.89-87.58,31.89-87.58Z"/><path class="cls-31" d="M1369.14,493.31s-10.19,48.61-6.06,64.8c5.08,20,.19,41.07,9.55,59.09,0,0,66.36-8.33,71-12.43s-11.66-120-16.56-121S1369.14,493.31,1369.14,493.31Z"/><path class="cls-32" d="M1247.13,785.62c-9.43,15.52-28.63,172.28-28.63,172.28l10.43.77,49.09-143s79.53-11.36,88.47-26.58c8.34-14.29,8.34-39.47,8.34-39.47-4.08.19,21.7-17.58,21.7-17.58C1334.69,732.06,1254.28,773.83,1247.13,785.62Z"/><path class="cls-33" d="M1278,815.69,1228.9,958.45l-2.86,2.84s36.88-148.58,42.06-162.77c9.41-25.81,100.46-57.19,100.46-57.19l37,31S1282.47,817.57,1278,815.69Z"/><path class="cls-32" d="M1286.45,795.84c-5.13,15,46.66,165.42,46.66,165.42l6.94-2-8-142.09s103.12-8.05,112-23.33c8.34-14.27-1.5-52.49-1.5-52.49-4.07.19-28.93-6.45-28.93-6.45C1374.91,749.64,1291,782.61,1286.45,795.84Z"/><path class="cls-33" d="M1321.75,810c-5.12,15,17.78,152.23,17.78,152.23l.47-2.85-8-142.09s103.13-8,112-23.33c8.35-14.27-1.49-52.49-1.49-52.49-4.07.19-56,12.64-56,12.64,18.67,10.09,34.55,23.41,15.72,31.19C1366,800.22,1324.72,801.26,1321.75,810Z"/><path class="cls-6" d="M1274.17,700.36a48.05,48.05,0,0,1-4.05,2.8.45.45,0,0,1-.11.13,21.1,21.1,0,0,1-6.68,3.68c-2.64.68-6,0-8.61-.12-.58,0-.88-.53-.64-.9,1.56-2.45,4.93-1.38,7.66-2.12a20.77,20.77,0,0,1-2.48-1.17,12.41,12.41,0,0,0-5.16,1.84c-2,1.2-3.5,2.21-6.16,2.27a.85.85,0,0,1-.84-.49c-.29-.72.59-1.22,1.22-1.73.44-.36.94-.73,1.41-1.06a8.89,8.89,0,0,1-4.49,1.28.84.84,0,0,1-.83-.47c-.28-.74.59-1.22,1.23-1.73l.3-.26a1.5,1.5,0,0,1-.3,0,.86.86,0,0,1-.84-.48c-.29-.73.59-1.22,1.22-1.72.85-.69,1.73-1.41,2.66-2.12a7.64,7.64,0,0,1-1.51-.06.7.7,0,0,1-.66-.61c0-.75.93-1.06,1.69-1.51a38.94,38.94,0,0,1,6.67-3c3.9-1.2,17.7-.45,20,2.36h0C1276.66,696.68,1276.77,699.4,1274.17,700.36Z"/><path class="cls-23" d="M1399.43,597.46c7.86,2.94.45,35.58-45.88,99.62-11.86,16.4-33.3.48-27.18-9.71s35.78-56.62,35.78-56.62S1384.79,592,1399.43,597.46Z"/><path class="cls-34" d="M1399.43,597.46c7.86,2.94.45,35.58-45.88,99.62,12.25-39.41,10.52-45.81,15.3-63C1372.05,622.56,1384.79,592,1399.43,597.46Z"/><path class="cls-12" d="M1351.18,698.92c0,3.18-8.61,6.64-21.29,7.5-9.91.68-58-3.7-58-3.7L1268,692.9s55.32-8.36,65.75-6.09S1351.26,691.89,1351.18,698.92Z"/><path class="cls-23" d="M1351.18,735.87c44.53,34.51,100.49,21.09,100.49,21.09s-24.82-56.94-15-112.68c2.18-12.3,2.85-23.54,4.73-28.84,2.51-7.09-4.1-12.78-9.89-16.26-1.26-.72-2.46-1.35-3.52-1.88-2.36-1.15-4-1.78-4-1.78s-5.3-.68-21.85-1.79c-4.39-.29-8.48,2-12.15,5.94-15,15.9-23.93,58.7-23.64,67.86.34,11.48,11.82,12,11.82,12C1376.89,701.24,1351.18,735.87,1351.18,735.87Z"/><path class="cls-34" d="M1378.15,679.57s16.47.1,27-2.9c0,0-13.15,11.36-28.28,10.67Z"/><path class="cls-34" d="M1439.59,619.48a550.2,550.2,0,0,0-3.18,80.15c.68,19.09,15.28,57.33,15.28,57.33s-28.71,5-49.45.75c0,0,16.08,1,13.16-25.53s10.77-101.79,19.61-115.92S1439.59,619.48,1439.59,619.48Z"/><path class="cls-6" d="M1421.05,713.24c-6.46-8.15-26.24,8-30.28,13.31a2,2,0,0,0,.41,2.72,1.9,1.9,0,0,0,1,.37c-.29.37-.59.71-.86,1.06-1.35,1.82,1.24,4.29,2.6,2.44.09-.12.2-.22.29-.35a2,2,0,0,0,2.78-.2l.09-.12c.37-.52.8-1,1.2-1.48.46.89,1.47.21,2.38-.53,3.5-2.86,5.56-5.18,8.94-7.62,3.73-.44,8.34-1,11.13-3.37C1422.63,717.86,1423.29,714.84,1421.05,713.24Z"/><path class="cls-23" d="M1423,606.08c.72,7.77,4.87,20.74,13.69,38.18,8.06,16.1,19.33,33.22,36.37,56.33,10.85,14.7,29.23-3.07,23.1-13.24S1462.67,631,1462.67,631s-16.07-27.44-29.92-32.87a11.22,11.22,0,0,0-4.72-.87,8.87,8.87,0,0,0-2.7.48C1423.45,598.51,1422.63,601.31,1423,606.08Z"/><path class="cls-23" d="M1495.6,691.92c-.95-3-5.84-3.89-18.22-1.06-9.67,2.26-60.92,19.37-60.92,19.37l1.39,11.67s55.35-8.19,64.69-13.4S1497.72,698.62,1495.6,691.92Z"/><path class="cls-34" d="M1390.65,611.29c1.2,6.13,5.5,13.21,12.78,10.18,5.07-2.12,9.55-7.24,13.79-10.6,1.93-1.59,3.91-3.19,5.84-4.78,2.84-2.31,5.68-4.63,8.54-6.9.38-.33.81-.67,1.19-1.06a11.05,11.05,0,0,0-4.71-.87c-2.37-1.16-4-1.78-4-1.78s-5.31-.68-21.86-1.79c-4.39-.29-8.48,2-12.15,5.94A37.44,37.44,0,0,0,1390.65,611.29Z"/><path class="cls-34" d="M1430.61,631.26s3,15.7,36.36,62c-7.29,2.65-30.27,10.3-30.27,10.3s45.24-6.76,40.68-12.73C1469,679.94,1430.61,631.26,1430.61,631.26Z"/><path class="cls-6" d="M1397.91,565.29c.8,11.75,1.06,23.89.11,31.3,4.84,14.74,28,.26,28,.26a102.73,102.73,0,0,1-.48-10.52c0-7.63.42-15.23.59-17.42a2.16,2.16,0,0,1,0-.36,1,1,0,0,1,0-.25Z"/><path class="cls-14" d="M1397.81,569.92c.17,1.21.33,2.34.43,3.39a51.91,51.91,0,0,1,.38,8.36c0,2.73-.1,6.94-.09,9.8,6.06,5.19,22.27-5.39,27-12.52.24-7.76,1.35-17.28,1.35-17.28Z"/><path class="cls-23" d="M1398.37,596.59c3.91,9.28,21.89,2.74,27.36-.45,2.7-1.57,4.74,1.21,2.06,2.78-8.77,5.11-29.62,11.24-32.07-2C1395.46,595.48,1397.51,594.53,1398.37,596.59Z"/><path class="cls-35" d="M1225.58,955.08c4.39,1.78,8,16.72,8,16.72h-40.88a99.15,99.15,0,0,0,18.82-9.91C1220.92,955.74,1222.14,953.69,1225.58,955.08Z"/><rect class="cls-15" x="1192.68" y="971.8" width="40.88" height="3.18"/><path class="cls-35" d="M1338.49,955.08c4.41,1.78,8,16.72,8,16.72h-40.89a98.58,98.58,0,0,0,18.82-9.91C1333.84,955.74,1335.05,953.69,1338.49,955.08Z"/><rect class="cls-15" x="1305.59" y="971.8" width="40.88" height="3.18"/><rect class="cls-36" x="1224.82" y="755.59" width="136.97" height="5.99"/><polygon class="cls-37" points="1361.79 761.58 1423.7 752.02 1423.7 746.03 1361.79 755.59 1361.79 761.58"/><polygon class="cls-36" points="1423.7 746.03 1268.27 741.47 1224.82 755.59 1361.79 755.59 1423.7 746.03"/><path class="cls-37" d="M1228.68,755.59h136.43l-18-84a5.15,5.15,0,0,0-4.94-4.24H1219.34c-4.87,0-8.48,4.81-7.42,9.87Z"/><path class="cls-38" d="M1225.39,755.59h136.43l-18-84a5.14,5.14,0,0,0-4.93-4.24H1213.44a5.8,5.8,0,0,0-5.56,6,5.7,5.7,0,0,0,.17,1.16Z"/><path class="cls-37" d="M1225.39,755.59h105.55l-71.82-88.19h-45.59a5.8,5.8,0,0,0-5.57,6,6.36,6.36,0,0,0,.17,1.16Z"/><path class="cls-6" d="M1435.88,511.43s-.87,41-10.11,55.24-27,25.77-32.79,24.39c-15.27-3.57-26.51-42.42-24.65-69.4C1370.67,488.1,1402.67,474.57,1435.88,511.43Z"/><path class="cls-18" d="M1413.89,535.93c-.47-4.12-2.81-6.95-5.38-6.36s-4.67,4.82-4.24,9.41,3.13,7.6,5.87,6.49S1414.35,540.15,1413.89,535.93Z"/><path class="cls-18" d="M1385.6,535.27c0-4.17-1.53-7.55-3.63-7.62s-4,3.52-4.1,8,1.72,7.93,3.91,7.65S1385.51,539.44,1385.6,535.27Z"/><path class="cls-18" d="M1375.59,532.45s6.56-5,11.66-3.74a4.38,4.38,0,0,0-4.91-2.3C1378.64,527,1375.59,532.45,1375.59,532.45Z"/><path class="cls-18" d="M1415.68,534.27s-6-4.69-12.44-3.48a6.27,6.27,0,0,1,6.48-2.4C1413.88,529.12,1415.68,534.27,1415.68,534.27Z"/><path class="cls-14" d="M1392.79,543.94a46.69,46.69,0,0,1-3.18,11.06c-.16.41-.33.83-.45,1.2s0-.1-.17-.08.67.54,1.42.81c1.62.57,3.52,1.06,5.45,1.72a13,13,0,0,1-6,1.06,5,5,0,0,1-3.65-1.62,3.27,3.27,0,0,1-.43-2.83,13.87,13.87,0,0,1,.46-1.53A26.89,26.89,0,0,1,1392.79,543.94Z"/><path class="cls-4" d="M1402.15,564.62s-9.42,5.59-15.5,2.65c0,0,2.69,11.86,6.3,11.5C1397.48,578.31,1401.52,570.89,1402.15,564.62Z"/><path class="cls-39" d="M1404.07,518.77c-1.73.56-1,3.57.8,3.92,2.59.52,7.61-.38,19.52,4.51C1425.08,527.49,1412,516.23,1404.07,518.77Z"/><path class="cls-39" d="M1390,517.8c1.67.71.64,3.65-1.16,3.83-2.61.29-7.54-1.06-19.83,2.79C1368.27,524.59,1382.33,514.52,1390,517.8Z"/><path class="cls-30" d="M1430.12,508a73.83,73.83,0,0,0-2.12,29.43c3.77-2.88,11.29-1.75,11.29-1.75s25.45-23.55,16.15-43.78v-.09c-4-8.74-9.54-14.44-15.38-18.12-17.63-10.91-39.24-3.51-39.24-3.51-37.47-13.21-57.43,22.19-49.42,34.74C1362.37,522.13,1430.12,508,1430.12,508Z"/><path class="cls-30" d="M1455.5,491.88s8.13,26.2,8.67,45.19,38,60.16,8.29,90c-8.18,8.23-42.17,12-56,1.7s-6.37-28,2.12-37.12,13.25-27.67,11.54-37.28c-5.52-31,0-46.42,0-46.42Z"/><path class="cls-6" d="M1426.54,538.65c3.18-3.11,14.44-10,16.36-2.8,2.42,9.1-10.49,29.85-17.73,18.1C1422.15,549.06,1423.76,541.36,1426.54,538.65Z"/><path class="cls-14" d="M1429.23,541.82s8.82-6.79,8.86-1.88c0,7.42-5.37,11.5-7.43,11.78a11.07,11.07,0,0,0,2-7.13C1432.29,540.8,1429.23,541.82,1429.23,541.82Z"/><path class="cls-3" d="M761.71,434.43l18.65-22.51-13.16-13a73.86,73.86,0,0,0,7.56-24.5l10.31,2.82,7.9-6.12L790.25,342l-18.5.12a74.12,74.12,0,0,0-12-22.66l10.53-15.21-22.5-18.72-8.38,6.14-4.63,7a73.74,73.74,0,0,0-24.49-7.56L707,273l-29.08,2.72-8.19,6.13,8.36,12.41a73.73,73.73,0,0,0-22.69,12l-15.2-10.54-8.11,6.13L621.5,318.17l13.18,13a74,74,0,0,0-7.56,24.49L608.91,359l-8.3,6.22,11,22.87,18.5-.13a74.23,74.23,0,0,0,12,22.68l-10.51,15.21,14.32,24.87,8.18-6.21,13-13.17a73.79,73.79,0,0,0,24.5,7.56l3.3,18.21,20.78,3.46,8.29-6.12-.12-18.56a74.23,74.23,0,0,0,22.68-12l7,16.69Zm-94.45-28.78a52.75,52.75,0,1,1,74.29-6.93,52.76,52.76,0,0,1-74.29,6.93Z"/><path class="cls-1" d="M766.56,380.45l18.2-3.28-2.74-29-18.47.13a74.34,74.34,0,0,0-12-22.68l10.53-15.22L739.6,291.72l-13,13.16a74,74,0,0,0-24.5-7.57l-3.32-18.2-29,2.65.12,18.51a74.37,74.37,0,0,0-22.66,12L632,301.7l-18.66,22.52,13.16,13A73.92,73.92,0,0,0,619,361.7L600.72,365l2.72,29.07L622,394a73.68,73.68,0,0,0,12,22.68l-10.6,15.22,22.51,18.66,13-13.19a73.46,73.46,0,0,0,24.52,7.57l3.29,18.23,29.09-2.73-.13-18.5a74.09,74.09,0,0,0,22.69-12l15.24,10.53L772.18,418,759,405A74.23,74.23,0,0,0,766.56,380.45Zm-33.19,24.32a52.74,52.74,0,1,1-6.92-74.31,52.74,52.74,0,0,1,6.92,74.31Z"/></svg>